<?xml version="1.0" encoding="UTF-8"?>
<svg width="57px" height="57px" viewBox="0 0 57 57" version="1.1" xmlns="http://www.w3.org/2000/svg" xmlns:xlink="http://www.w3.org/1999/xlink">
    <title>dental</title>
    <g id="Page-1" stroke="none" stroke-width="1" fill="none" fill-rule="evenodd">
        <g id="dental" transform="translate(2.000000, 2.000000)" stroke="#FFFFFF">
            <circle id="Oval" stroke-width="3.11764706" cx="26.5" cy="26.5" r="26.5"></circle>
            <path d="M32.0269436,8.31372549 C29.8435172,8.31372549 27.7630918,8.97767092 25.9854072,10.2241199 C25.8398995,10.1216607 25.6922971,10.0213172 25.5429889,9.92732413 C25.1967372,9.70928227 24.8306518,9.50859315 24.4557564,9.32992824 C23.0361999,8.65546928 21.51537,8.31372549 19.9337543,8.31372549 C14.0997315,8.31372549 9.35294118,13.07903 9.35294118,18.9357143 C9.35294118,19.7769806 9.47018306,20.646601 9.70299334,21.521283 C10.090575,22.9769186 10.7923852,24.3600434 11.7902207,25.6310962 C12.8754018,27.0125952 15.3991417,30.6050779 15.3991417,34.1098756 C15.3991417,35.899126 15.582179,41.9488474 17.9401564,44.6644803 C18.5373461,45.3461362 19.3766637,45.7254902 20.2703106,45.7254902 C20.3466468,45.7254902 20.4225663,45.7229498 20.4993204,45.7170224 C21.4777757,45.64674 22.3469679,45.1335975 22.8847539,44.307126 C23.1171323,43.9489399 23.2795046,43.636905 23.3980205,43.3244473 C24.4553461,40.5177694 24.4679999,36.1167207 24.4679999,35.9308372 C24.4679999,34.5548659 24.9112604,31.985772 25.9795446,31.985772 C27.103918,31.985772 27.4886061,34.6958772 27.4910894,35.9308372 C27.4910894,36.116699 27.5037421,40.5177694 28.5619108,43.3248809 C28.6791527,43.6369158 28.842378,43.9489508 29.0760196,44.3088277 C29.6129095,45.1335867 30.4817562,45.6471887 31.4601575,45.7169898 C31.5369159,45.7224939 31.6132554,45.7254902 31.6887463,45.7254902 C32.5828466,45.7254902 33.4229199,45.3461036 34.0226793,44.6619116 C36.3785297,41.9488799 36.5616426,35.8994837 36.5616426,34.1099081 C36.5616426,30.6059775 39.0853825,27.0130613 40.1714274,25.6311287 C41.1684423,24.3600759 41.8710515,22.9769511 42.257791,21.5213155 C42.4905905,20.6474464 42.6078431,19.7773708 42.6078431,18.936072 C42.6078431,13.0785205 37.8610528,8.31372549 32.02703,8.31372549 L32.0269436,8.31372549 Z M40.4724499,21.0694834 C40.1496924,22.281902 39.5593008,23.4398542 38.7177033,24.5116759 C37.5183913,26.038141 34.728507,30.0273754 34.728507,34.0892317 C34.728507,38.2963318 33.9091979,41.9571465 32.644227,43.4139076 C32.3740721,43.7212323 31.9801941,43.8816382 31.5783335,43.8512494 C31.1705696,43.8221217 30.8086861,43.6085171 30.5860814,43.2665781 C30.4261731,43.0208955 30.3201278,42.8199533 30.2494381,42.6342054 C29.311469,40.1482015 29.2988435,35.9470452 29.2988435,35.9044663 C29.2988435,35.3278244 29.2016382,30.3735291 26.1642364,30.1739269 C26.1053233,30.1616849 26.043465,30.1553521 25.9807685,30.1553521 C22.7556717,30.1553521 22.6627043,35.3164794 22.6627043,35.9044792 C22.6627043,35.9462714 22.6517636,40.1428111 21.7125299,42.6334619 C21.6418348,42.8200527 21.5353747,43.0209841 21.3763067,43.2645594 C21.1532818,43.6077628 20.7905473,43.8213598 20.3832035,43.8509165 C19.9821725,43.8804667 19.5883052,43.721321 19.3202509,43.4165359 C18.0523175,41.9576134 17.2330624,38.2959341 17.2330624,34.0889421 C17.2330624,30.0270858 14.443178,26.0374191 13.2442969,24.5113862 C12.4022685,23.4391431 11.8114353,22.2807478 11.4886886,21.0691938 C11.2980677,20.3502908 11.2004357,19.6402062 11.2004357,18.9593757 C11.2004357,14.1208324 15.1248888,10.1843137 19.9476679,10.1843137 C21.2555676,10.1843137 22.5128361,10.4663288 23.6844625,11.0227078 C23.9937542,11.1696159 24.2963131,11.3363546 24.5828747,11.5157696 C24.869447,11.6956061 25.1488556,11.8944302 25.414389,12.1076166 C25.5414732,12.2106187 25.666446,12.3165775 25.7876376,12.4259103 C27.1982,13.6961454 28.7130411,14.4969318 30.2893936,14.8058991 C31.0325297,14.9515428 31.8156536,15.0254075 32.6160567,15.0254075 C33.1155492,15.0254075 33.5207816,14.6193083 33.5207816,14.1178064 C33.5207816,13.6163046 33.1155492,13.2102054 32.6160567,13.2102054 C31.931405,13.2102054 31.2652822,13.1473064 30.6361631,13.0244575 C29.5496401,12.8112711 28.4838004,12.2878206 27.4595429,11.4680574 C28.8271227,10.6275776 30.3858082,10.1843137 32.0131151,10.1843137 C36.836325,10.1843137 40.7603486,14.121243 40.7603486,18.9593541 C40.7607681,19.6415355 40.663562,20.3507339 40.4725145,21.0696044 L40.4724499,21.0694834 Z" id="Shape" stroke-width="1.03921569" fill="#FFFFFF" fill-rule="nonzero"></path>
        </g>
    </g>
</svg>