<?xml version="1.0" encoding="UTF-8"?>
<svg width="236px" height="32px" viewBox="0 0 236 32" version="1.1" xmlns="http://www.w3.org/2000/svg" xmlns:xlink="http://www.w3.org/1999/xlink">
    <title>logo green</title>
    <g id="Page-1" stroke="none" stroke-width="1" fill="none" fill-rule="evenodd">
        <g id="logo-green" transform="translate(0.593750, 0.640625)" fill="#006974" fill-rule="nonzero">
            <path d="M9.984375,4.515625 L9.640625,4.515625 C9.55729167,4.27604167 9.42447917,4.00520833 9.2421875,3.703125 C9.05989583,3.40104167 8.8203125,3.1171875 8.5234375,2.8515625 C8.2265625,2.5859375 7.8671875,2.36458333 7.4453125,2.1875 C7.0234375,2.01041667 6.52604167,1.921875 5.953125,1.921875 C5.44270833,1.921875 4.98958333,2 4.59375,2.15625 C4.19791667,2.3125 3.8671875,2.53125 3.6015625,2.8125 C3.3359375,3.09375 3.13541667,3.42708333 3,3.8125 C2.86458333,4.19791667 2.796875,4.625 2.796875,5.09375 C2.796875,5.84375 3.0078125,6.55989583 3.4296875,7.2421875 C3.8515625,7.92447917 4.38020833,8.59895833 5.015625,9.265625 C5.65104167,9.93229167 6.33854167,10.5989583 7.078125,11.265625 C7.81770833,11.9322917 8.50520833,12.625 9.140625,13.34375 C9.77604167,14.0625 10.3046875,14.8151042 10.7265625,15.6015625 C11.1484375,16.3880208 11.359375,17.234375 11.359375,18.140625 C11.359375,18.8177083 11.2421875,19.4973958 11.0078125,20.1796875 C10.7734375,20.8619792 10.4114583,21.4739583 9.921875,22.015625 C9.43229167,22.5572917 8.80208333,22.9973958 8.03125,23.3359375 C7.26041667,23.6744792 6.34375,23.84375 5.28125,23.84375 C4.6875,23.84375 4.12239583,23.7890625 3.5859375,23.6796875 C3.04947917,23.5703125 2.5546875,23.4348958 2.1015625,23.2734375 C1.6484375,23.1119792 1.2421875,22.9375 0.8828125,22.75 C0.5234375,22.5625 0.229166667,22.390625 0,22.234375 L0.359375,18.78125 L0.75,18.78125 C0.864583333,19.2708333 1.05208333,19.7369792 1.3125,20.1796875 C1.57291667,20.6223958 1.89322917,21.0130208 2.2734375,21.3515625 C2.65364583,21.6901042 3.08854167,21.9609375 3.578125,22.1640625 C4.06770833,22.3671875 4.60416667,22.46875 5.1875,22.46875 C5.71875,22.46875 6.1953125,22.3880208 6.6171875,22.2265625 C7.0390625,22.0651042 7.40104167,21.8411458 7.703125,21.5546875 C8.00520833,21.2682292 8.23697917,20.9270833 8.3984375,20.53125 C8.55989583,20.1354167 8.640625,19.703125 8.640625,19.234375 C8.640625,18.578125 8.52083333,17.9713542 8.28125,17.4140625 C8.04166667,16.8567708 7.7265625,16.328125 7.3359375,15.828125 C6.9453125,15.328125 6.50260417,14.84375 6.0078125,14.375 C5.51302083,13.90625 5.00520833,13.4348958 4.484375,12.9609375 C3.96354167,12.4869792 3.45572917,12 2.9609375,11.5 C2.46614583,11 2.0234375,10.4661458 1.6328125,9.8984375 C1.2421875,9.33072917 0.927083333,8.72135417 0.6875,8.0703125 C0.447916667,7.41927083 0.328125,6.703125 0.328125,5.921875 C0.328125,5.09895833 0.486979167,4.35677083 0.8046875,3.6953125 C1.12239583,3.03385417 1.54427083,2.46875 2.0703125,2 C2.59635417,1.53125 3.19270833,1.171875 3.859375,0.921875 C4.52604167,0.671875 5.21354167,0.546875 5.921875,0.546875 C6.44270833,0.546875 6.921875,0.588541667 7.359375,0.671875 C7.796875,0.755208333 8.19010417,0.854166667 8.5390625,0.96875 C8.88802083,1.08333333 9.19270833,1.19791667 9.453125,1.3125 C9.71354167,1.42708333 9.92708333,1.52083333 10.09375,1.59375 L9.984375,4.515625 Z" id="Path"></path>
            <path d="M15.46875,13.46875 C15.46875,12.5833333 15.4557292,11.8098958 15.4296875,11.1484375 C15.4036458,10.4869792 15.3723958,9.91666667 15.3359375,9.4375 C15.2994792,8.95833333 15.2526042,8.55729167 15.1953125,8.234375 C15.1380208,7.91145833 15.078125,7.640625 15.015625,7.421875 L15.015625,7.359375 L18.625,7.359375 L18.625,7.421875 C18.5625,7.640625 18.5052083,7.91145833 18.453125,8.234375 C18.4010417,8.55729167 18.3541667,8.95833333 18.3125,9.4375 C18.2708333,9.91666667 18.2395833,10.4869792 18.21875,11.1484375 C18.1979167,11.8098958 18.1875,12.5833333 18.1875,13.46875 L18.1875,17.25 C18.1875,18.1354167 18.1979167,18.9088542 18.21875,19.5703125 C18.2395833,20.2317708 18.2708333,20.8020833 18.3125,21.28125 C18.3541667,21.7604167 18.4010417,22.1614583 18.453125,22.484375 C18.5052083,22.8072917 18.5625,23.078125 18.625,23.296875 L18.625,23.359375 L15.015625,23.359375 L15.015625,23.296875 C15.078125,23.078125 15.1380208,22.8072917 15.1953125,22.484375 C15.2526042,22.1614583 15.2994792,21.7604167 15.3359375,21.28125 C15.3723958,20.8020833 15.4036458,20.2317708 15.4296875,19.5703125 C15.4557292,18.9088542 15.46875,18.1354167 15.46875,17.25 L15.46875,13.46875 Z M15.140625,2.625 C15.140625,2.39583333 15.1848958,2.1796875 15.2734375,1.9765625 C15.3619792,1.7734375 15.4791667,1.59635417 15.625,1.4453125 C15.7708333,1.29427083 15.9453125,1.17447917 16.1484375,1.0859375 C16.3515625,0.997395833 16.5729167,0.953125 16.8125,0.953125 C17.0520833,0.953125 17.2734375,0.997395833 17.4765625,1.0859375 C17.6796875,1.17447917 17.8567708,1.29427083 18.0078125,1.4453125 C18.1588542,1.59635417 18.2786458,1.7734375 18.3671875,1.9765625 C18.4557292,2.1796875 18.5,2.39583333 18.5,2.625 C18.5,3.10416667 18.3385417,3.50520833 18.015625,3.828125 C17.6927083,4.15104167 17.2916667,4.3125 16.8125,4.3125 C16.5729167,4.3125 16.3515625,4.26822917 16.1484375,4.1796875 C15.9453125,4.09114583 15.7708333,3.97135417 15.625,3.8203125 C15.4791667,3.66927083 15.3619792,3.4921875 15.2734375,3.2890625 C15.1848958,3.0859375 15.140625,2.86458333 15.140625,2.625 Z" id="Shape"></path>
            <path d="M33.515625,12.828125 C33.515625,12.140625 33.4453125,11.546875 33.3046875,11.046875 C33.1640625,10.546875 32.9609375,10.1328125 32.6953125,9.8046875 C32.4296875,9.4765625 32.109375,9.23177083 31.734375,9.0703125 C31.359375,8.90885417 30.9427083,8.828125 30.484375,8.828125 C30.171875,8.828125 29.8229167,8.890625 29.4375,9.015625 C29.0520833,9.140625 28.6536458,9.30989583 28.2421875,9.5234375 C27.8307292,9.73697917 27.4192708,9.984375 27.0078125,10.265625 C26.5963542,10.546875 26.2083333,10.8489583 25.84375,11.171875 C25.8229167,11.5052083 25.8125,11.8619792 25.8125,12.2421875 C25.8125,12.6223958 25.8125,13.03125 25.8125,13.46875 L25.8125,17.25 C25.8125,18.1354167 25.8229167,18.9088542 25.84375,19.5703125 C25.8645833,20.2317708 25.8958333,20.8020833 25.9375,21.28125 C25.9791667,21.7604167 26.0260417,22.1614583 26.078125,22.484375 C26.1302083,22.8072917 26.1875,23.078125 26.25,23.296875 L26.25,23.359375 L22.640625,23.359375 L22.640625,23.296875 C22.703125,23.078125 22.7630208,22.8072917 22.8203125,22.484375 C22.8776042,22.1614583 22.9244792,21.7604167 22.9609375,21.28125 C22.9973958,20.8020833 23.0286458,20.2317708 23.0546875,19.5703125 C23.0807292,18.9088542 23.09375,18.1354167 23.09375,17.25 L23.09375,13.46875 C23.09375,12.5833333 23.0807292,11.8098958 23.0546875,11.1484375 C23.0286458,10.4869792 22.9973958,9.91666667 22.9609375,9.4375 C22.9244792,8.95833333 22.8776042,8.55729167 22.8203125,8.234375 C22.7630208,7.91145833 22.703125,7.640625 22.640625,7.421875 L22.640625,7.359375 L26.25,7.359375 L26.25,7.421875 C26.1666667,7.66145833 26.1015625,7.96614583 26.0546875,8.3359375 C26.0078125,8.70572917 25.9583333,9.171875 25.90625,9.734375 C26.3229167,9.40104167 26.7708333,9.07291667 27.25,8.75 C27.7291667,8.42708333 28.2213542,8.140625 28.7265625,7.890625 C29.2317708,7.640625 29.7395833,7.4375 30.25,7.28125 C30.7604167,7.125 31.265625,7.046875 31.765625,7.046875 C32.359375,7.046875 32.8854167,7.125 33.34375,7.28125 C33.8020833,7.4375 34.203125,7.65104167 34.546875,7.921875 C34.890625,8.19270833 35.1796875,8.51041667 35.4140625,8.875 C35.6484375,9.23958333 35.828125,9.63020833 35.953125,10.046875 C36.3802083,9.68229167 36.8463542,9.3203125 37.3515625,8.9609375 C37.8567708,8.6015625 38.3776042,8.28125 38.9140625,8 C39.4505208,7.71875 39.9973958,7.48958333 40.5546875,7.3125 C41.1119792,7.13541667 41.65625,7.046875 42.1875,7.046875 C43,7.046875 43.6901042,7.1875 44.2578125,7.46875 C44.8255208,7.75 45.2890625,8.11979167 45.6484375,8.578125 C46.0078125,9.03645833 46.2682292,9.55989583 46.4296875,10.1484375 C46.5911458,10.7369792 46.671875,11.3333333 46.671875,11.9375 L46.671875,17.25 C46.671875,18.1354167 46.6822917,18.9088542 46.703125,19.5703125 C46.7239583,20.2317708 46.7552083,20.8020833 46.796875,21.28125 C46.8385417,21.7604167 46.8880208,22.1614583 46.9453125,22.484375 C47.0026042,22.8072917 47.0625,23.078125 47.125,23.296875 L47.125,23.359375 L43.5,23.359375 L43.5,23.296875 C43.5625,23.078125 43.6223958,22.8072917 43.6796875,22.484375 C43.7369792,22.1614583 43.7864583,21.7604167 43.828125,21.28125 C43.8697917,20.8020833 43.9010417,20.2317708 43.921875,19.5703125 C43.9427083,18.9088542 43.953125,18.1354167 43.953125,17.25 L43.953125,12.828125 C43.953125,11.453125 43.6770833,10.4427083 43.125,9.796875 C42.5729167,9.15104167 41.8333333,8.828125 40.90625,8.828125 C40.5833333,8.828125 40.2265625,8.890625 39.8359375,9.015625 C39.4453125,9.140625 39.0416667,9.3125 38.625,9.53125 C38.2083333,9.75 37.7916667,10.0026042 37.375,10.2890625 C36.9583333,10.5755208 36.5677083,10.8802083 36.203125,11.203125 C36.2239583,11.328125 36.234375,11.453125 36.234375,11.578125 C36.234375,11.703125 36.234375,11.8229167 36.234375,11.9375 L36.234375,17.25 C36.234375,18.1354167 36.2473958,18.9088542 36.2734375,19.5703125 C36.2994792,20.2317708 36.3307292,20.8020833 36.3671875,21.28125 C36.4036458,21.7604167 36.4505208,22.1614583 36.5078125,22.484375 C36.5651042,22.8072917 36.625,23.078125 36.6875,23.296875 L36.6875,23.359375 L33.078125,23.359375 L33.078125,23.296875 C33.140625,23.078125 33.1979167,22.8072917 33.25,22.484375 C33.3020833,22.1614583 33.3489583,21.7604167 33.390625,21.28125 C33.4322917,20.8020833 33.4635417,20.2317708 33.484375,19.5703125 C33.5052083,18.9088542 33.515625,18.1354167 33.515625,17.25 L33.515625,12.828125 Z" id="Path"></path>
            <path d="M51.375,13.15625 C51.375,12.2708333 51.3619792,11.4973958 51.3359375,10.8359375 C51.3098958,10.1744792 51.2786458,9.60416667 51.2421875,9.125 C51.2057292,8.64583333 51.1588542,8.24479167 51.1015625,7.921875 C51.0442708,7.59895833 50.984375,7.328125 50.921875,7.109375 L50.921875,7.046875 L54.53125,7.046875 L54.53125,7.109375 C54.4791667,7.265625 54.4322917,7.44270833 54.390625,7.640625 C54.3489583,7.83854167 54.3125,8.0625 54.28125,8.3125 C54.8958333,7.95833333 55.5755208,7.65885417 56.3203125,7.4140625 C57.0651042,7.16927083 57.890625,7.046875 58.796875,7.046875 C59.953125,7.046875 61.0078125,7.2421875 61.9609375,7.6328125 C62.9140625,8.0234375 63.7317708,8.58333333 64.4140625,9.3125 C65.0963542,10.0416667 65.625,10.921875 66,11.953125 C66.375,12.984375 66.5625,14.140625 66.5625,15.421875 C66.5625,16.4947917 66.3776042,17.5260417 66.0078125,18.515625 C65.6380208,19.5052083 65.0963542,20.3802083 64.3828125,21.140625 C63.6692708,21.9010417 62.7916667,22.5078125 61.75,22.9609375 C60.7083333,23.4140625 59.5104167,23.640625 58.15625,23.640625 C57.34375,23.640625 56.6041667,23.578125 55.9375,23.453125 C55.2708333,23.328125 54.65625,23.1666667 54.09375,22.96875 L54.09375,25.25 C54.09375,26.1354167 54.1041667,26.9088542 54.125,27.5703125 C54.1458333,28.2317708 54.1770833,28.8020833 54.21875,29.28125 C54.2604167,29.7604167 54.3072917,30.1614583 54.359375,30.484375 C54.4114583,30.8072917 54.46875,31.078125 54.53125,31.296875 L54.53125,31.359375 L50.921875,31.359375 L50.921875,31.296875 C50.984375,31.078125 51.0442708,30.8072917 51.1015625,30.484375 C51.1588542,30.1614583 51.2057292,29.7604167 51.2421875,29.28125 C51.2786458,28.8020833 51.3098958,28.2317708 51.3359375,27.5703125 C51.3619792,26.9088542 51.375,26.1354167 51.375,25.25 L51.375,13.15625 Z M58.25,8.21875 C57.8958333,8.21875 57.5338542,8.26302083 57.1640625,8.3515625 C56.7942708,8.44010417 56.4296875,8.56510417 56.0703125,8.7265625 C55.7109375,8.88802083 55.3671875,9.09114583 55.0390625,9.3359375 C54.7109375,9.58072917 54.4166667,9.859375 54.15625,10.171875 C54.1354167,10.5677083 54.1197917,11.015625 54.109375,11.515625 C54.0989583,12.015625 54.09375,12.5625 54.09375,13.15625 L54.09375,21.34375 C54.3020833,21.5 54.5364583,21.6458333 54.796875,21.78125 C55.0572917,21.9166667 55.3515625,22.0390625 55.6796875,22.1484375 C56.0078125,22.2578125 56.3776042,22.34375 56.7890625,22.40625 C57.2005208,22.46875 57.65625,22.5 58.15625,22.5 C58.96875,22.5 59.703125,22.3541667 60.359375,22.0625 C61.015625,21.7708333 61.5703125,21.3489583 62.0234375,20.796875 C62.4765625,20.2447917 62.8255208,19.5729167 63.0703125,18.78125 C63.3151042,17.9895833 63.4375,17.09375 63.4375,16.09375 C63.4375,14.96875 63.34375,13.9244792 63.15625,12.9609375 C62.96875,11.9973958 62.6692708,11.1640625 62.2578125,10.4609375 C61.8463542,9.7578125 61.3125,9.20833333 60.65625,8.8125 C60,8.41666667 59.1979167,8.21875 58.25,8.21875 Z" id="Shape"></path>
            <path d="M70.15625,6.109375 C70.15625,5.22395833 70.1432292,4.45052083 70.1171875,3.7890625 C70.0911458,3.12760417 70.0598958,2.55729167 70.0234375,2.078125 C69.9869792,1.59895833 69.9401042,1.19791667 69.8828125,0.875 C69.8255208,0.552083333 69.765625,0.28125 69.703125,0.0625 L69.703125,0 L73.3125,0 L73.3125,0.0625 C73.25,0.28125 73.1927083,0.552083333 73.140625,0.875 C73.0885417,1.19791667 73.0416667,1.59895833 73,2.078125 C72.9583333,2.55729167 72.9270833,3.12760417 72.90625,3.7890625 C72.8854167,4.45052083 72.875,5.22395833 72.875,6.109375 L72.875,17.25 C72.875,18.1354167 72.8854167,18.9088542 72.90625,19.5703125 C72.9270833,20.2317708 72.9583333,20.8020833 73,21.28125 C73.0416667,21.7604167 73.0885417,22.1614583 73.140625,22.484375 C73.1927083,22.8072917 73.25,23.078125 73.3125,23.296875 L73.3125,23.359375 L69.703125,23.359375 L69.703125,23.296875 C69.765625,23.078125 69.8255208,22.8072917 69.8828125,22.484375 C69.9401042,22.1614583 69.9869792,21.7604167 70.0234375,21.28125 C70.0598958,20.8020833 70.0911458,20.2317708 70.1171875,19.5703125 C70.1432292,18.9088542 70.15625,18.1354167 70.15625,17.25 L70.15625,6.109375 Z" id="Path"></path>
            <path d="M82.796875,23.171875 L77.296875,11.140625 C77.0989583,10.6822917 76.8854167,10.2421875 76.65625,9.8203125 C76.4270833,9.3984375 76.2109375,9.02083333 76.0078125,8.6875 C75.8046875,8.35416667 75.625,8.07552083 75.46875,7.8515625 C75.3125,7.62760417 75.2083333,7.484375 75.15625,7.421875 L75.15625,7.359375 L79.25,7.359375 L79.25,7.421875 C79.2291667,7.47395833 79.2135417,7.55208333 79.203125,7.65625 C79.1927083,7.76041667 79.1875,7.85416667 79.1875,7.9375 C79.1875,8.26041667 79.2369792,8.6171875 79.3359375,9.0078125 C79.4348958,9.3984375 79.6197917,9.88541667 79.890625,10.46875 L84.203125,19.84375 L88.140625,10.59375 C88.3072917,10.2083333 88.4765625,9.78645833 88.6484375,9.328125 C88.8203125,8.86979167 88.90625,8.40625 88.90625,7.9375 C88.90625,7.80208333 88.8958333,7.69010417 88.875,7.6015625 C88.8541667,7.51302083 88.8333333,7.453125 88.8125,7.421875 L88.8125,7.359375 L91.625,7.359375 L91.625,7.421875 C91.4375,7.61979167 91.2005208,7.97135417 90.9140625,8.4765625 C90.6276042,8.98177083 90.3229167,9.61458333 90,10.375 L82.546875,28.125 C82.3802083,28.5104167 82.2109375,28.9322917 82.0390625,29.390625 C81.8671875,29.8489583 81.78125,30.3125 81.78125,30.78125 C81.78125,30.9166667 81.7916667,31.0286458 81.8125,31.1171875 C81.8333333,31.2057292 81.8541667,31.265625 81.875,31.296875 L81.875,31.359375 L78.953125,31.359375 L78.953125,31.296875 C79.1510417,31.0989583 79.3932292,30.7526042 79.6796875,30.2578125 C79.9661458,29.7630208 80.2708333,29.140625 80.59375,28.390625 L82.796875,23.171875 Z" id="Path"></path>
            <path d="M118.734375,23.359375 L118.734375,23.296875 C118.755208,23.2447917 118.770833,23.1666667 118.78125,23.0625 C118.791667,22.9583333 118.796875,22.8645833 118.796875,22.78125 C118.796875,22.4583333 118.752604,22.1015625 118.664062,21.7109375 C118.575521,21.3203125 118.40625,20.8333333 118.15625,20.25 L116.265625,16 C115.682292,15.9791667 114.90625,15.96875 113.9375,15.96875 C112.96875,15.96875 111.921875,15.96875 110.796875,15.96875 C109.973958,15.96875 109.179688,15.96875 108.414062,15.96875 C107.648438,15.96875 106.958333,15.9791667 106.34375,16 L104.546875,20.125 C104.390625,20.5104167 104.223958,20.9322917 104.046875,21.390625 C103.869792,21.8489583 103.78125,22.3125 103.78125,22.78125 C103.78125,22.9166667 103.791667,23.0286458 103.8125,23.1171875 C103.833333,23.2057292 103.854167,23.265625 103.875,23.296875 L103.875,23.359375 L100.6875,23.359375 L100.6875,23.296875 C100.875,23.0989583 101.109375,22.7473958 101.390625,22.2421875 C101.671875,21.7369792 101.979167,21.1041667 102.3125,20.34375 L111.265625,0.484375 L112.515625,0.484375 L121,19.578125 C121.197917,20.0260417 121.403646,20.4609375 121.617188,20.8828125 C121.830729,21.3046875 122.03125,21.6822917 122.21875,22.015625 C122.40625,22.3489583 122.572917,22.6302083 122.71875,22.859375 C122.864583,23.0885417 122.963542,23.234375 123.015625,23.296875 L123.015625,23.359375 L118.734375,23.359375 Z M108.609375,14.625 C109.213542,14.625 109.833333,14.6223958 110.46875,14.6171875 C111.104167,14.6119792 111.726562,14.6067708 112.335938,14.6015625 C112.945312,14.5963542 113.53125,14.5911458 114.09375,14.5859375 C114.65625,14.5807292 115.166667,14.5729167 115.625,14.5625 L111.234375,4.640625 L106.921875,14.625 L108.609375,14.625 Z" id="Shape"></path>
            <path d="M132.109375,23.640625 C130.953125,23.640625 129.869792,23.4583333 128.859375,23.09375 C127.848958,22.7291667 126.96875,22.1953125 126.21875,21.4921875 C125.46875,20.7890625 124.877604,19.9192708 124.445312,18.8828125 C124.013021,17.8463542 123.796875,16.6614583 123.796875,15.328125 C123.796875,14.1510417 123.994792,13.0598958 124.390625,12.0546875 C124.786458,11.0494792 125.333333,10.1770833 126.03125,9.4375 C126.729167,8.69791667 127.544271,8.11979167 128.476562,7.703125 C129.408854,7.28645833 130.416667,7.078125 131.5,7.078125 C132.572917,7.078125 133.567708,7.26302083 134.484375,7.6328125 C135.401042,8.00260417 136.195312,8.5390625 136.867188,9.2421875 C137.539062,9.9453125 138.070312,10.8151042 138.460938,11.8515625 C138.851562,12.8880208 139.0625,14.0677083 139.09375,15.390625 C137.916667,15.3697917 136.739583,15.3541667 135.5625,15.34375 C134.385417,15.3333333 133.161458,15.328125 131.890625,15.328125 C130.984375,15.328125 130.101562,15.3333333 129.242188,15.34375 C128.382812,15.3541667 127.609375,15.3697917 126.921875,15.390625 C126.984375,16.4739583 127.153646,17.453125 127.429688,18.328125 C127.705729,19.203125 128.085938,19.9505208 128.570312,20.5703125 C129.054688,21.1901042 129.643229,21.6666667 130.335938,22 C131.028646,22.3333333 131.8125,22.5 132.6875,22.5 C133.291667,22.5 133.861979,22.4296875 134.398438,22.2890625 C134.934896,22.1484375 135.421875,21.953125 135.859375,21.703125 C136.296875,21.453125 136.6875,21.1588542 137.03125,20.8203125 C137.375,20.4817708 137.666667,20.1145833 137.90625,19.71875 L138.09375,19.8125 L136.9375,22.59375 C136.375,22.8854167 135.703125,23.1328125 134.921875,23.3359375 C134.140625,23.5390625 133.203125,23.640625 132.109375,23.640625 Z M130.03125,14.109375 C131.072917,14.109375 132.117188,14.1067708 133.164062,14.1015625 C134.210938,14.0963542 135.161458,14.078125 136.015625,14.046875 C135.921875,13.140625 135.744792,12.328125 135.484375,11.609375 C135.223958,10.890625 134.890625,10.28125 134.484375,9.78125 C134.078125,9.28125 133.598958,8.89583333 133.046875,8.625 C132.494792,8.35416667 131.885417,8.21875 131.21875,8.21875 C130.614583,8.21875 130.059896,8.3515625 129.554688,8.6171875 C129.049479,8.8828125 128.609375,9.265625 128.234375,9.765625 C127.859375,10.265625 127.557292,10.8776042 127.328125,11.6015625 C127.098958,12.3255208 126.963542,13.1510417 126.921875,14.078125 C127.390625,14.0989583 127.885417,14.109375 128.40625,14.109375 C128.927083,14.109375 129.46875,14.109375 130.03125,14.109375 Z" id="Shape"></path>
            <path d="M149.515625,10.5 L149.296875,10.53125 C149.223958,10.2916667 149.106771,10.0364583 148.945312,9.765625 C148.783854,9.49479167 148.575521,9.24479167 148.320312,9.015625 C148.065104,8.78645833 147.757812,8.59635417 147.398438,8.4453125 C147.039062,8.29427083 146.625,8.21875 146.15625,8.21875 C145.833333,8.21875 145.528646,8.265625 145.242188,8.359375 C144.955729,8.453125 144.705729,8.59114583 144.492188,8.7734375 C144.278646,8.95572917 144.109375,9.18229167 143.984375,9.453125 C143.859375,9.72395833 143.796875,10.0416667 143.796875,10.40625 C143.796875,10.9166667 143.955729,11.4036458 144.273438,11.8671875 C144.591146,12.3307292 144.989583,12.7890625 145.46875,13.2421875 C145.947917,13.6953125 146.466146,14.1510417 147.023438,14.609375 C147.580729,15.0677083 148.098958,15.546875 148.578125,16.046875 C149.057292,16.546875 149.455729,17.0807292 149.773438,17.6484375 C150.091146,18.2161458 150.25,18.828125 150.25,19.484375 C150.25,20.015625 150.15625,20.5338542 149.96875,21.0390625 C149.78125,21.5442708 149.492188,21.9947917 149.101562,22.390625 C148.710938,22.7864583 148.210938,23.1067708 147.601562,23.3515625 C146.992188,23.5963542 146.265625,23.71875 145.421875,23.71875 C144.921875,23.71875 144.455729,23.671875 144.023438,23.578125 C143.591146,23.484375 143.195312,23.3671875 142.835938,23.2265625 C142.476562,23.0859375 142.153646,22.9296875 141.867188,22.7578125 C141.580729,22.5859375 141.328125,22.421875 141.109375,22.265625 L141.265625,19.296875 L141.515625,19.296875 C141.619792,19.7864583 141.776042,20.234375 141.984375,20.640625 C142.192708,21.046875 142.450521,21.3932292 142.757812,21.6796875 C143.065104,21.9661458 143.416667,22.1901042 143.8125,22.3515625 C144.208333,22.5130208 144.640625,22.59375 145.109375,22.59375 C145.880208,22.59375 146.492188,22.3802083 146.945312,21.953125 C147.398438,21.5260417 147.625,20.96875 147.625,20.28125 C147.625,19.7291667 147.471354,19.2213542 147.164062,18.7578125 C146.856771,18.2942708 146.46875,17.8489583 146,17.421875 C145.53125,16.9947917 145.028646,16.5677083 144.492188,16.140625 C143.955729,15.7135417 143.453125,15.2578125 142.984375,14.7734375 C142.515625,14.2890625 142.127604,13.7578125 141.820312,13.1796875 C141.513021,12.6015625 141.359375,11.9427083 141.359375,11.203125 C141.359375,10.5989583 141.471354,10.0442708 141.695312,9.5390625 C141.919271,9.03385417 142.231771,8.6015625 142.632812,8.2421875 C143.033854,7.8828125 143.510417,7.60416667 144.0625,7.40625 C144.614583,7.20833333 145.21875,7.109375 145.875,7.109375 C146.739583,7.109375 147.460938,7.20052083 148.039062,7.3828125 C148.617188,7.56510417 149.057292,7.73958333 149.359375,7.90625 L149.515625,10.5 Z" id="Path"></path>
            <path d="M159.4375,22.4375 C159.75,22.4375 160.059896,22.3802083 160.367188,22.265625 C160.674479,22.1510417 160.971354,21.9947917 161.257812,21.796875 C161.544271,21.5989583 161.820312,21.3723958 162.085938,21.1171875 C162.351562,20.8619792 162.598958,20.59375 162.828125,20.3125 L162.984375,20.390625 L161.96875,22.90625 C161.84375,22.96875 161.690104,23.0442708 161.507812,23.1328125 C161.325521,23.2213542 161.106771,23.3046875 160.851562,23.3828125 C160.596354,23.4609375 160.296875,23.5286458 159.953125,23.5859375 C159.609375,23.6432292 159.203125,23.671875 158.734375,23.671875 C157.338542,23.671875 156.252604,23.2942708 155.476562,22.5390625 C154.700521,21.7838542 154.3125,20.6041667 154.3125,19 L154.3125,8.578125 L151.6875,8.671875 L151.6875,7.296875 C152.010417,7.31770833 152.395833,7.33333333 152.84375,7.34375 C153.291667,7.35416667 153.78125,7.359375 154.3125,7.359375 C154.302083,6.61979167 154.283854,5.96614583 154.257812,5.3984375 C154.231771,4.83072917 154.200521,4.3359375 154.164062,3.9140625 C154.127604,3.4921875 154.083333,3.13541667 154.03125,2.84375 C153.979167,2.55208333 153.927083,2.30729167 153.875,2.109375 L153.875,2.046875 L157.484375,2.046875 L157.484375,2.109375 C157.421875,2.30729167 157.364583,2.55208333 157.3125,2.84375 C157.260417,3.13541667 157.216146,3.48958333 157.179688,3.90625 C157.143229,4.32291667 157.111979,4.81510417 157.085938,5.3828125 C157.059896,5.95052083 157.041667,6.609375 157.03125,7.359375 C157.6875,7.34895833 158.330729,7.3359375 158.960938,7.3203125 C159.591146,7.3046875 160.164062,7.28385417 160.679688,7.2578125 C161.195312,7.23177083 161.632812,7.20572917 161.992188,7.1796875 C162.351562,7.15364583 162.588542,7.13020833 162.703125,7.109375 L162.421875,8.703125 C161.890625,8.69270833 161.333333,8.67708333 160.75,8.65625 C160.25,8.63541667 159.677083,8.61979167 159.03125,8.609375 C158.385417,8.59895833 157.71875,8.58854167 157.03125,8.578125 L157.03125,19.328125 C157.03125,19.9739583 157.101562,20.4973958 157.242188,20.8984375 C157.382812,21.2994792 157.565104,21.6145833 157.789062,21.84375 C158.013021,22.0729167 158.268229,22.2291667 158.554688,22.3125 C158.841146,22.3958333 159.135417,22.4375 159.4375,22.4375 Z" id="Path"></path>
            <path d="M176.8125,12.828125 C176.8125,11.453125 176.536458,10.4427083 175.984375,9.796875 C175.432292,9.15104167 174.692708,8.828125 173.765625,8.828125 C173.421875,8.828125 173.039062,8.8984375 172.617188,9.0390625 C172.195312,9.1796875 171.763021,9.36979167 171.320312,9.609375 C170.877604,9.84895833 170.4375,10.1276042 170,10.4453125 C169.5625,10.7630208 169.15625,11.0989583 168.78125,11.453125 L168.78125,17.25 C168.78125,18.1354167 168.791667,18.9088542 168.8125,19.5703125 C168.833333,20.2317708 168.864583,20.8020833 168.90625,21.28125 C168.947917,21.7604167 168.994792,22.1614583 169.046875,22.484375 C169.098958,22.8072917 169.15625,23.078125 169.21875,23.296875 L169.21875,23.359375 L165.609375,23.359375 L165.609375,23.296875 C165.671875,23.078125 165.731771,22.8072917 165.789062,22.484375 C165.846354,22.1614583 165.893229,21.7604167 165.929688,21.28125 C165.966146,20.8020833 165.997396,20.2317708 166.023438,19.5703125 C166.049479,18.9088542 166.0625,18.1354167 166.0625,17.25 L166.0625,6.109375 C166.0625,5.22395833 166.049479,4.45052083 166.023438,3.7890625 C165.997396,3.12760417 165.966146,2.55729167 165.929688,2.078125 C165.893229,1.59895833 165.846354,1.19791667 165.789062,0.875 C165.731771,0.552083333 165.671875,0.28125 165.609375,0.0625 L165.609375,0 L169.21875,0 L169.21875,0.0625 C169.15625,0.28125 169.098958,0.552083333 169.046875,0.875 C168.994792,1.19791667 168.947917,1.59895833 168.90625,2.078125 C168.864583,2.55729167 168.833333,3.12760417 168.8125,3.7890625 C168.791667,4.45052083 168.78125,5.22395833 168.78125,6.109375 L168.78125,10.109375 C169.197917,9.734375 169.658854,9.36458333 170.164062,9 C170.669271,8.63541667 171.192708,8.30729167 171.734375,8.015625 C172.276042,7.72395833 172.828125,7.48958333 173.390625,7.3125 C173.953125,7.13541667 174.505208,7.046875 175.046875,7.046875 C175.859375,7.046875 176.549479,7.1875 177.117188,7.46875 C177.684896,7.75 178.148438,8.11979167 178.507812,8.578125 C178.867188,9.03645833 179.127604,9.55989583 179.289062,10.1484375 C179.450521,10.7369792 179.53125,11.3333333 179.53125,11.9375 L179.53125,17.25 C179.53125,18.1354167 179.541667,18.9088542 179.5625,19.5703125 C179.583333,20.2317708 179.614583,20.8020833 179.65625,21.28125 C179.697917,21.7604167 179.744792,22.1614583 179.796875,22.484375 C179.848958,22.8072917 179.90625,23.078125 179.96875,23.296875 L179.96875,23.359375 L176.359375,23.359375 L176.359375,23.296875 C176.421875,23.078125 176.481771,22.8072917 176.539062,22.484375 C176.596354,22.1614583 176.643229,21.7604167 176.679688,21.28125 C176.716146,20.8020833 176.747396,20.2317708 176.773438,19.5703125 C176.799479,18.9088542 176.8125,18.1354167 176.8125,17.25 L176.8125,12.828125 Z" id="Path"></path>
            <path d="M191.234375,23.640625 C190.078125,23.640625 188.994792,23.4583333 187.984375,23.09375 C186.973958,22.7291667 186.09375,22.1953125 185.34375,21.4921875 C184.59375,20.7890625 184.002604,19.9192708 183.570312,18.8828125 C183.138021,17.8463542 182.921875,16.6614583 182.921875,15.328125 C182.921875,14.1510417 183.119792,13.0598958 183.515625,12.0546875 C183.911458,11.0494792 184.458333,10.1770833 185.15625,9.4375 C185.854167,8.69791667 186.669271,8.11979167 187.601562,7.703125 C188.533854,7.28645833 189.541667,7.078125 190.625,7.078125 C191.697917,7.078125 192.692708,7.26302083 193.609375,7.6328125 C194.526042,8.00260417 195.320312,8.5390625 195.992188,9.2421875 C196.664062,9.9453125 197.195312,10.8151042 197.585938,11.8515625 C197.976562,12.8880208 198.1875,14.0677083 198.21875,15.390625 C197.041667,15.3697917 195.864583,15.3541667 194.6875,15.34375 C193.510417,15.3333333 192.286458,15.328125 191.015625,15.328125 C190.109375,15.328125 189.226562,15.3333333 188.367188,15.34375 C187.507812,15.3541667 186.734375,15.3697917 186.046875,15.390625 C186.109375,16.4739583 186.278646,17.453125 186.554688,18.328125 C186.830729,19.203125 187.210938,19.9505208 187.695312,20.5703125 C188.179688,21.1901042 188.768229,21.6666667 189.460938,22 C190.153646,22.3333333 190.9375,22.5 191.8125,22.5 C192.416667,22.5 192.986979,22.4296875 193.523438,22.2890625 C194.059896,22.1484375 194.546875,21.953125 194.984375,21.703125 C195.421875,21.453125 195.8125,21.1588542 196.15625,20.8203125 C196.5,20.4817708 196.791667,20.1145833 197.03125,19.71875 L197.21875,19.8125 L196.0625,22.59375 C195.5,22.8854167 194.828125,23.1328125 194.046875,23.3359375 C193.265625,23.5390625 192.328125,23.640625 191.234375,23.640625 Z M189.15625,14.109375 C190.197917,14.109375 191.242188,14.1067708 192.289062,14.1015625 C193.335938,14.0963542 194.286458,14.078125 195.140625,14.046875 C195.046875,13.140625 194.869792,12.328125 194.609375,11.609375 C194.348958,10.890625 194.015625,10.28125 193.609375,9.78125 C193.203125,9.28125 192.723958,8.89583333 192.171875,8.625 C191.619792,8.35416667 191.010417,8.21875 190.34375,8.21875 C189.739583,8.21875 189.184896,8.3515625 188.679688,8.6171875 C188.174479,8.8828125 187.734375,9.265625 187.359375,9.765625 C186.984375,10.265625 186.682292,10.8776042 186.453125,11.6015625 C186.223958,12.3255208 186.088542,13.1510417 186.046875,14.078125 C186.515625,14.0989583 187.010417,14.109375 187.53125,14.109375 C188.052083,14.109375 188.59375,14.109375 189.15625,14.109375 Z" id="Shape"></path>
            <path d="M207.234375,22.4375 C207.546875,22.4375 207.856771,22.3802083 208.164062,22.265625 C208.471354,22.1510417 208.768229,21.9947917 209.054688,21.796875 C209.341146,21.5989583 209.617188,21.3723958 209.882812,21.1171875 C210.148438,20.8619792 210.395833,20.59375 210.625,20.3125 L210.78125,20.390625 L209.765625,22.90625 C209.640625,22.96875 209.486979,23.0442708 209.304688,23.1328125 C209.122396,23.2213542 208.903646,23.3046875 208.648438,23.3828125 C208.393229,23.4609375 208.09375,23.5286458 207.75,23.5859375 C207.40625,23.6432292 207,23.671875 206.53125,23.671875 C205.135417,23.671875 204.049479,23.2942708 203.273438,22.5390625 C202.497396,21.7838542 202.109375,20.6041667 202.109375,19 L202.109375,8.578125 L199.484375,8.671875 L199.484375,7.296875 C199.807292,7.31770833 200.192708,7.33333333 200.640625,7.34375 C201.088542,7.35416667 201.578125,7.359375 202.109375,7.359375 C202.098958,6.61979167 202.080729,5.96614583 202.054688,5.3984375 C202.028646,4.83072917 201.997396,4.3359375 201.960938,3.9140625 C201.924479,3.4921875 201.880208,3.13541667 201.828125,2.84375 C201.776042,2.55208333 201.723958,2.30729167 201.671875,2.109375 L201.671875,2.046875 L205.28125,2.046875 L205.28125,2.109375 C205.21875,2.30729167 205.161458,2.55208333 205.109375,2.84375 C205.057292,3.13541667 205.013021,3.48958333 204.976562,3.90625 C204.940104,4.32291667 204.908854,4.81510417 204.882812,5.3828125 C204.856771,5.95052083 204.838542,6.609375 204.828125,7.359375 C205.484375,7.34895833 206.127604,7.3359375 206.757812,7.3203125 C207.388021,7.3046875 207.960938,7.28385417 208.476562,7.2578125 C208.992188,7.23177083 209.429688,7.20572917 209.789062,7.1796875 C210.148438,7.15364583 210.385417,7.13020833 210.5,7.109375 L210.21875,8.703125 C209.6875,8.69270833 209.130208,8.67708333 208.546875,8.65625 C208.046875,8.63541667 207.473958,8.61979167 206.828125,8.609375 C206.182292,8.59895833 205.515625,8.58854167 204.828125,8.578125 L204.828125,19.328125 C204.828125,19.9739583 204.898438,20.4973958 205.039062,20.8984375 C205.179688,21.2994792 205.361979,21.6145833 205.585938,21.84375 C205.809896,22.0729167 206.065104,22.2291667 206.351562,22.3125 C206.638021,22.3958333 206.932292,22.4375 207.234375,22.4375 Z" id="Path"></path>
            <path d="M213.953125,13.46875 C213.953125,12.5833333 213.940104,11.8098958 213.914062,11.1484375 C213.888021,10.4869792 213.856771,9.91666667 213.820312,9.4375 C213.783854,8.95833333 213.736979,8.55729167 213.679688,8.234375 C213.622396,7.91145833 213.5625,7.640625 213.5,7.421875 L213.5,7.359375 L217.109375,7.359375 L217.109375,7.421875 C217.046875,7.640625 216.989583,7.91145833 216.9375,8.234375 C216.885417,8.55729167 216.838542,8.95833333 216.796875,9.4375 C216.755208,9.91666667 216.723958,10.4869792 216.703125,11.1484375 C216.682292,11.8098958 216.671875,12.5833333 216.671875,13.46875 L216.671875,17.25 C216.671875,18.1354167 216.682292,18.9088542 216.703125,19.5703125 C216.723958,20.2317708 216.755208,20.8020833 216.796875,21.28125 C216.838542,21.7604167 216.885417,22.1614583 216.9375,22.484375 C216.989583,22.8072917 217.046875,23.078125 217.109375,23.296875 L217.109375,23.359375 L213.5,23.359375 L213.5,23.296875 C213.5625,23.078125 213.622396,22.8072917 213.679688,22.484375 C213.736979,22.1614583 213.783854,21.7604167 213.820312,21.28125 C213.856771,20.8020833 213.888021,20.2317708 213.914062,19.5703125 C213.940104,18.9088542 213.953125,18.1354167 213.953125,17.25 L213.953125,13.46875 Z M213.625,2.625 C213.625,2.39583333 213.669271,2.1796875 213.757812,1.9765625 C213.846354,1.7734375 213.963542,1.59635417 214.109375,1.4453125 C214.255208,1.29427083 214.429688,1.17447917 214.632812,1.0859375 C214.835938,0.997395833 215.057292,0.953125 215.296875,0.953125 C215.536458,0.953125 215.757812,0.997395833 215.960938,1.0859375 C216.164062,1.17447917 216.341146,1.29427083 216.492188,1.4453125 C216.643229,1.59635417 216.763021,1.7734375 216.851562,1.9765625 C216.940104,2.1796875 216.984375,2.39583333 216.984375,2.625 C216.984375,3.10416667 216.822917,3.50520833 216.5,3.828125 C216.177083,4.15104167 215.776042,4.3125 215.296875,4.3125 C215.057292,4.3125 214.835938,4.26822917 214.632812,4.1796875 C214.429688,4.09114583 214.255208,3.97135417 214.109375,3.8203125 C213.963542,3.66927083 213.846354,3.4921875 213.757812,3.2890625 C213.669271,3.0859375 213.625,2.86458333 213.625,2.625 Z" id="Shape"></path>
            <path d="M234.5625,20.03125 L233.40625,22.8125 C233.125,22.9375 232.802083,23.0520833 232.4375,23.15625 C232.072917,23.2604167 231.695312,23.3489583 231.304688,23.421875 C230.914062,23.4947917 230.520833,23.5494792 230.125,23.5859375 C229.729167,23.6223958 229.354167,23.640625 229,23.640625 C227.739583,23.640625 226.575521,23.4557292 225.507812,23.0859375 C224.440104,22.7161458 223.518229,22.1770833 222.742188,21.46875 C221.966146,20.7604167 221.359375,19.890625 220.921875,18.859375 C220.484375,17.828125 220.265625,16.6510417 220.265625,15.328125 C220.265625,14.1510417 220.492188,13.0598958 220.945312,12.0546875 C221.398438,11.0494792 222.028646,10.1770833 222.835938,9.4375 C223.643229,8.69791667 224.59375,8.11979167 225.6875,7.703125 C226.78125,7.28645833 227.96875,7.078125 229.25,7.078125 C229.833333,7.078125 230.458333,7.12760417 231.125,7.2265625 C231.791667,7.32552083 232.385417,7.453125 232.90625,7.609375 L234.015625,10.265625 L233.828125,10.375 C233.567708,10.0520833 233.257812,9.7578125 232.898438,9.4921875 C232.539062,9.2265625 232.143229,9 231.710938,8.8125 C231.278646,8.625 230.822917,8.47916667 230.34375,8.375 C229.864583,8.27083333 229.375,8.21875 228.875,8.21875 C228.0625,8.21875 227.322917,8.36197917 226.65625,8.6484375 C225.989583,8.93489583 225.416667,9.34895833 224.9375,9.890625 C224.458333,10.4322917 224.085938,11.0963542 223.820312,11.8828125 C223.554688,12.6692708 223.421875,13.5625 223.421875,14.5625 C223.421875,15.6875 223.549479,16.734375 223.804688,17.703125 C224.059896,18.671875 224.440104,19.5130208 224.945312,20.2265625 C225.450521,20.9401042 226.085938,21.4973958 226.851562,21.8984375 C227.617188,22.2994792 228.515625,22.5 229.546875,22.5 C230.026042,22.5 230.502604,22.4401042 230.976562,22.3203125 C231.450521,22.2005208 231.898438,22.0286458 232.320312,21.8046875 C232.742188,21.5807292 233.130208,21.3125 233.484375,21 C233.838542,20.6875 234.135417,20.3333333 234.375,19.9375 L234.5625,20.03125 Z" id="Path"></path>
        </g>
    </g>
</svg>