<?xml version="1.0" encoding="UTF-8"?>
<svg width="35px" height="50px" viewBox="0 0 35 50" version="1.1" xmlns="http://www.w3.org/2000/svg" xmlns:xlink="http://www.w3.org/1999/xlink">
    <title>map</title>
    <g id="Page-1" stroke="none" stroke-width="1" fill="none" fill-rule="evenodd">
        <g id="map" fill="#006974" fill-rule="nonzero">
            <path d="M18.3383884,0.0193142518 C8.27241892,-0.447302856 0,7.60110023 0,17.6321444 C0,19.2069055 0.231223608,20.7231377 0.578663343,22.1811535 C2.2561011,29.0046671 13.1320712,44.6929164 16.4873599,49.4752081 C17.0079152,50.1749306 17.9913516,50.1749306 18.5123097,49.4752081 C21.925345,44.6927082 32.743362,29.0629877 34.4210063,22.1811535 C34.8261512,20.7231377 35,19.2069055 35,17.6321444 C35.0569709,8.24252301 27.6522278,0.427558658 18.3378926,0.0193142518 L18.3383884,0.0193142518 Z M17.5,26 C12.7902786,26 9,22.2094026 9,17.5002051 C9,12.7905974 12.7902786,9 17.5,9 C22.2097214,9 26,12.7905974 26,17.4997949 C26,22.2094026 22.2097214,26 17.5,26 Z" id="Shape"></path>
        </g>
    </g>
</svg>