<?xml version="1.0" encoding="UTF-8"?>
<svg width="55px" height="57px" viewBox="0 0 55 57" version="1.1" xmlns="http://www.w3.org/2000/svg" xmlns:xlink="http://www.w3.org/1999/xlink">
    <title>plastic</title>
    <g id="Page-1" stroke="none" stroke-width="1" fill="none" fill-rule="evenodd">
        <g id="plastic" transform="translate(2.000000, 1.000000)" stroke="#FFFFFF">
            <g id="noun-tooth-1239465" transform="translate(1.000000, 0.000000)" fill="#FFFFFF" fill-rule="nonzero" stroke-width="0.75">
                <g id="noun-surgery-3722449">
                    <path d="M45.0200838,1.29319627 C43.2947276,-0.430793145 40.4867335,-0.431337677 38.7613773,1.29319627 L20.7369347,19.309049 C20.3464278,19.6993697 20.3464278,20.3321708 20.7369347,20.7225188 L20.9885877,20.9740519 L8.20191135,33.7540899 C8.11412765,33.8418318 8.04921978,33.9460648 7.99973904,34.056673 C7.58581972,34.1789804 7.27831189,34.5469699 7.27831189,35.0000344 C7.27831189,35.5520132 7.72574954,35.9997822 8.27852272,35.9997822 L13.0555312,35.9997822 C13.3837956,35.9997822 13.6609721,35.8317259 13.842919,35.5876529 C14.9750649,35.3058166 16.0678495,34.8825243 17.1032266,34.32736 C16.9393668,34.5055037 16.8334865,34.7389448 16.8334865,35.000048 C16.8334865,35.5520269 17.2809242,35.9997822 17.8336973,35.9997822 L22.6112506,35.9997822 C23.1640238,35.9997822 23.6114614,35.5525578 23.6114614,35.000048 C23.6114614,34.4480692 23.1640238,34.0003139 22.6112506,34.0003139 L17.8336973,34.0003139 C17.7650658,34.0003139 17.704948,34.0263711 17.6405686,34.0391336 C19.3659248,33.0186663 20.9076861,31.6328451 22.1473602,29.9403025 L25.4485272,25.4314385 L25.5820653,25.5649129 C25.7693375,25.7520959 26.0236464,25.8579122 26.2891236,25.8579122 C26.5546007,25.8579122 26.8083784,25.7526214 26.9961818,25.5649129 L45.0206245,7.54906022 C46.7459807,5.82452627 46.7459807,3.01841496 45.0200925,1.29333648 L45.0200838,1.29319627 Z M24.016991,24.0015565 L20.5338635,28.7598162 C18.351563,31.7408586 15.1093697,33.6355589 11.6394534,33.9605085 C11.3037526,33.9924141 11.0175189,34.0009224 10.7839666,34.0004145 L22.4028813,22.387014 L23.6222756,23.6058271 L24.016991,24.0015565 Z M43.6063486,6.13545016 L26.2887735,23.4447721 L26.0387276,23.1948454 C26.0381956,23.1943137 26.0381956,23.1937819 26.0376636,23.1932502 L23.1099516,20.2663888 C23.1094196,20.265857 23.1088874,20.265857 23.1083554,20.2653252 L22.8577784,20.0148676 L40.1753534,2.70690692 C41.1196958,1.76248363 42.6598772,1.76035996 43.6059085,2.70690692 C44.5513133,3.65239205 44.5513133,5.19079122 43.6064405,6.13582711 L43.6063486,6.13545016 Z" id="Shape"></path>
                    <path d="M3.50012503,34.0005317 L1.00021083,34.0005317 C0.447437653,34.0005317 0,34.448287 0,35.0002658 C0,35.5522447 0.447437653,36 1.00021083,36 L3.50012503,36 C4.05289821,36 4.50033586,35.5527756 4.50033586,35.0002658 C4.49980387,34.448287 4.05289821,34.0005317 3.50012503,34.0005317 Z" id="Path"></path>
                    <path d="M41.7213683,34.0005317 L36.9438151,34.0005317 C36.3910419,34.0005317 35.9436042,34.448287 35.9436042,35.0002658 C35.9436042,35.5522447 36.3910419,36 36.9438151,36 L41.7213683,36 C42.2741415,36 42.7215792,35.5527756 42.7215792,35.0002658 C42.7215792,34.448287 42.2741415,34.0005317 41.7213683,34.0005317 Z" id="Path"></path>
                    <path d="M32.165717,34.0005317 L27.3887085,34.0005317 C26.8359354,34.0005317 26.3884977,34.448287 26.3884977,35.0002658 C26.3884977,35.5522447 26.8359354,36 27.3887085,36 L32.165717,36 C32.7184902,36 33.1659278,35.5527756 33.1659278,35.0002658 C33.1659278,34.448287 32.7184902,34.0005317 32.165717,34.0005317 Z" id="Path"></path>
                    <path d="M48.9997892,34.0005317 L46.499875,34.0005317 C45.9471018,34.0005317 45.4996641,34.448287 45.4996641,35.0002658 C45.4996641,35.5522447 45.9471018,36 46.499875,36 L48.9997892,36 C49.5525623,36 50,35.5527756 50,35.0002658 C50,34.448287 49.5525623,34.0005317 48.9997892,34.0005317 Z" id="Path"></path>
                </g>
            </g>
            <path d="M36.788704,5.62851467 C33.3857605,3.94570936 29.5533214,3 25.5,3 C11.4167389,3 0,14.4167389 0,28.5 C0,42.5832611 11.4167389,54 25.5,54 C39.5832611,54 51,42.5832611 51,28.5 C51,21.2674579 47.9889529,14.7381834 43.1520324,10.0973505" id="Path" stroke-width="3"></path>
        </g>
    </g>
</svg>